# xmcd
#
# Track frame offsets:
#  150
#  24225
#  53840
#  76825
#  102453
#  117173
#  141633
#  160962
#  189858
#  201925
#  225016
#  250589
#  268969
#  294023
#
# Disc length: 4208 seconds
#
# Revision: 0
# Processed by: cddbd v1.5.1PL2 Copyright (c) Steve Scherf et al.
# Submitted via: Collectorz.com_Music_Collector 6.10
#
DISCID=b4106e0e
DTITLE=Bruce Springsteen - Circus Night [CD1)
DYEAR=1996
DGENRE=Alt Country
TTITLE0=The Ghost Of Tom Joad
TTITLE1=Adam Raised A Cain
TTITLE2=Straight Time
TTITLE3=Highway 29
TTITLE4=Darkness On The Edge Of Town
TTITLE5=Johnny 99
TTITLE6=Nebraska
TTITLE7=Dead Man Walkin'
TTITLE8=It's The Little Things That Count
TTITLE9=Sell It And They Will Come
TTITLE10=Brothers Under The Bridges
TTITLE11=Born In The Usa
TTITLE12=Dry Lightning
TTITLE13=Reason To Believe
EXTD=
EXTT0=
EXTT1=
EXTT2=
EXTT3=
EXTT4=
EXTT5=
EXTT6=
EXTT7=
EXTT8=
EXTT9=
EXTT10=
EXTT11=
EXTT12=
EXTT13=
PLAYORDER=
